{
    "accessors": [
        {
            "bufferView": 1,
            "byteOffset": 0,
            "componentType": 5126,
            "count": 4008,
            "max": [
                0.9995602965354919,
                0.999422013759613,
                0.9998872876167297
            ],
            "min": [
                -0.9912818074226379,
                -0.997423529624939,
                -0.980170488357544
            ],
            "name": "accessor_buffer_belly_NORMAL_0",
            "type": "VEC3"
        },
        {
            "bufferView": 3,
            "byteOffset": 0,
            "componentType": 5123,
            "count": 15000,
            "max": [
                4007
            ],
            "min": [
                0
            ],
            "name": "accessor_buffer_belly_0",
            "type": "SCALAR"
        },
        {
            "bufferView": 2,
            "byteOffset": 0,
            "componentType": 5126,
            "count": 4008,
            "max": [
                0.989201009273529,
                0.9960940000601113
            ],
            "min": [
                0.0039059999398887157,
                0.001766979694366455
            ],
            "name": "accessor_buffer_belly_TEXCOORD_0_0",
            "type": "VEC2"
        },
        {
            "bufferView": 0,
            "byteOffset": 0,
            "componentType": 5126,
            "count": 4008,
            "max": [
                19.421602249145508,
                7.107133865356445,
                0
            ],
            "min": [
                -10.099184036254883,
                -5.993858814239502,
                -20.644750595092773
            ],
            "name": "accessor_buffer_belly_POSITION_0",
            "type": "VEC3"
        }
    ],
    "asset": {
        "version": "2.0"
    },
    "bufferViews": [
        {
            "buffer": 0,
            "byteLength": 48096,
            "byteOffset": 0,
            "byteStride": 12,
            "name": "bufferView_buffer_belly_POSITION_0",
            "target": 34962
        },
        {
            "buffer": 0,
            "byteLength": 48096,
            "byteOffset": 48096,
            "byteStride": 12,
            "name": "bufferView_buffer_belly_NORMAL_0",
            "target": 34962
        },
        {
            "buffer": 0,
            "byteLength": 32064,
            "byteOffset": 96192,
            "byteStride": 8,
            "name": "bufferView_buffer_belly_TEXCOORD_0_0",
            "target": 34962
        },
        {
            "buffer": 0,
            "byteLength": 30000,
            "byteOffset": 128256,
            "name": "bufferView_buffer_belly_0",
            "target": 34963
        }
    ],
    "buffers": [
        {
            "byteLength": 158256,
            "name": "buffer_belly",
            "uri": "buffer_belly.bin"
        }
    ],
    "images": [
        {
            "name": "belly.jpg",
            "uri": "belly.jpg"
        }
    ],
    "materials": [
        {
            "emissiveFactor": [
                0.0,
                0.0,
                0.0
            ],
            "name": "belly",
            "pbrMetallicRoughness": {
                "baseColorFactor": [
                    1.0,
                    1.0,
                    1.0,
                    1.0
                ],
                "baseColorTexture": {
                    "index": 0,
                    "texCoord": 0
                },
                "metallicFactor": 0.0,
                "roughnessFactor": 1.0
            }
        }
    ],
    "meshes": [
        {
            "name": "belly",
            "primitives": [
                {
                    "attributes": {
                        "NORMAL": 0,
                        "POSITION": 3,
                        "TEXCOORD_0": 2
                    },
                    "indices": 1,
                    "material": 0,
                    "mode": 4
                }
            ]
        }
    ],
    "nodes": [
        {
            "mesh": 0,
            "name": "belly",
            "rotation": [
                0.3573298454284668,
                0.17263217270374298,
                0.3992901146411896,
                0.8264872431755066
            ],
            "scale": [
                0.1363065540790558,
                0.1363065540790558,
                0.1363065540790558
            ],
            "translation": [
                1.0409315824508667,
                -1.803472876548767,
                1.305071234703064
            ]
        },
        {
            "name": "Lamp",
            "rotation": [
                0.16907575726509094,
                0.27217137813568115,
                0.7558802962303162,
                0.570947527885437
            ],
            "scale": [
                1.0,
                0.9999999403953552,
                1.0
            ],
            "translation": [
                4.076245307922363,
                1.0054539442062378,
                5.903861999511719
            ]
        },
        {
            "children": [
                0,
                1
            ],
            "matrix": [
                -1.0,
                0.0,
                0.0,
                0.0,
                0.0,
                0.0,
                1.0,
                0.0,
                0.0,
                1.0,
                0.0,
                0.0,
                0.0,
                0.0,
                0.0,
                1.0
            ],
            "name": "Scene_root"
        }
    ],
    "samplers": [
        {
            "magFilter": 9729,
            "minFilter": 9987,
            "name": "Kd",
            "wrapS": 10497,
            "wrapT": 10497
        }
    ],
    "scene": 0,
    "scenes": [
        {
            "extras": {
                "background_color": [
                    0.05087608844041824,
                    0.05087608844041824,
                    0.05087608844041824
                ],
                "frames_per_second": 24
            },
            "name": "Scene",
            "nodes": [
                2
            ]
        }
    ],
    "textures": [
        {
            "name": "Kd",
            "sampler": 0,
            "source": 0
        }
    ]
}
