{
    "accessors" : [
        {
            "bufferView" : 0,
            "componentType" : 5125,
            "count" : 364602,
            "max" : [
                243067
            ],
            "min" : [
                0
            ],
            "type" : "SCALAR"
        },
        {
            "bufferView" : 1,
            "componentType" : 5126,
            "count" : 243068,
            "max" : [
                0.3006640076637268,
                -0.726157009601593,
                0.5304359793663025
            ],
            "min" : [
                -0.6024720072746277,
                -1.0133490562438965,
                -0.26399099826812744
            ],
            "type" : "VEC3"
        },
        {
            "bufferView" : 2,
            "componentType" : 5126,
            "count" : 243068,
            "max" : [
                0.9998731017112732,
                0.9999973177909851,
                0.99715656042099
            ],
            "min" : [
                -0.9999194145202637,
                -0.5227116346359253,
                -0.9999635815620422
            ],
            "type" : "VEC3"
        },
        {
            "bufferView" : 3,
            "componentType" : 5126,
            "count" : 2,
            "max" : [
                1.25
            ],
            "min" : [
                0.0
            ],
            "type" : "SCALAR"
        },
        {
            "bufferView" : 4,
            "componentType" : 5126,
            "count" : 6,
            "max" : [
                0.0,
                0.9524600505828857,
                -0.0
            ],
            "min" : [
                0.0,
                0.0,
                -0.13738839328289032
            ],
            "type" : "VEC3"
        },
        {
            "bufferView" : 5,
            "componentType" : 5126,
            "count" : 31,
            "max" : [
                1.25
            ],
            "min" : [
                0.0
            ],
            "type" : "SCALAR"
        },
        {
            "bufferView" : 6,
            "componentType" : 5126,
            "count" : 31,
            "max" : [
                0.0,
                0.0,
                -0.0,
                1.0
            ],
            "min" : [
                0.0,
                0.0,
                -0.0,
                1.0
            ],
            "type" : "VEC4"
        },
        {
            "bufferView" : 7,
            "componentType" : 5126,
            "count" : 2,
            "max" : [
                1.25
            ],
            "min" : [
                0.0
            ],
            "type" : "SCALAR"
        },
        {
            "bufferView" : 8,
            "componentType" : 5126,
            "count" : 6,
            "max" : [
                1.0,
                1.0,
                1.0
            ],
            "min" : [
                0.0,
                0.0,
                0.0
            ],
            "type" : "VEC3"
        }
    ],
    "animations" : [
        {
            "channels" : [
                {
                    "sampler" : 0,
                    "target" : {
                        "node" : 0,
                        "path" : "translation"
                    }
                },
                {
                    "sampler" : 1,
                    "target" : {
                        "node" : 0,
                        "path" : "rotation"
                    }
                },
                {
                    "sampler" : 2,
                    "target" : {
                        "node" : 0,
                        "path" : "scale"
                    }
                }
            ],
            "samplers" : [
                {
                    "input" : 3,
                    "interpolation" : "CUBICSPLINE",
                    "output" : 4
                },
                {
                    "input" : 5,
                    "interpolation" : "LINEAR",
                    "output" : 6
                },
                {
                    "input" : 7,
                    "interpolation" : "CUBICSPLINE",
                    "output" : 8
                }
            ]
        }
    ],
    "asset" : {
        "generator" : "Khronos Blender glTF 2.0 exporter",
        "version" : "2.0"
    },
    "bufferViews" : [
        {
            "buffer" : 0,
            "byteLength" : 1458408,
            "byteOffset" : 0,
            "target" : 34963
        },
        {
            "buffer" : 0,
            "byteLength" : 2916816,
            "byteOffset" : 1458408,
            "target" : 34962
        },
        {
            "buffer" : 0,
            "byteLength" : 2916816,
            "byteOffset" : 4375224,
            "target" : 34962
        },
        {
            "buffer" : 0,
            "byteLength" : 8,
            "byteOffset" : 7292040
        },
        {
            "buffer" : 0,
            "byteLength" : 72,
            "byteOffset" : 7292048
        },
        {
            "buffer" : 0,
            "byteLength" : 124,
            "byteOffset" : 7292120
        },
        {
            "buffer" : 0,
            "byteLength" : 496,
            "byteOffset" : 7292244
        },
        {
            "buffer" : 0,
            "byteLength" : 8,
            "byteOffset" : 7292740
        },
        {
            "buffer" : 0,
            "byteLength" : 72,
            "byteOffset" : 7292748
        }
    ],
    "buffers" : [
        {
            "byteLength" : 7292820,
            "uri" : "tester.bin"
        }
    ],
    "materials" : [
        {
            "name" : "default",
            "pbrMetallicRoughness" : {
                "baseColorFactor" : [
                    0.6400000190734865,
                    0.6400000190734865,
                    0.6400000190734865,
                    1.0
                ],
                "metallicFactor" : 0.0
            }
        }
    ],
    "meshes" : [
        {
            "name" : "Beta_0Shape",
            "primitives" : [
                {
                    "attributes" : {
                        "NORMAL" : 2,
                        "POSITION" : 1
                    },
                    "indices" : 0
                }
            ]
        }
    ],
    "nodes" : [
        {
            "name" : "Beta_0",
            "translation" : [
                0.0,
                0.9524600505828857,
                -0.13738839328289032
            ]
        }
    ],
    "scene" : 0,
    "scenes" : [
        {
            "name" : "Scene",
            "nodes" : [
                0
            ]
        }
    ]
}
