{
    "accessors" : [
        {
            "bufferView" : 0,
            "componentType" : 5125,
            "count" : 364956,
            "max" : [
                243303
            ],
            "min" : [
                0
            ],
            "type" : "SCALAR"
        },
        {
            "bufferView" : 1,
            "componentType" : 5126,
            "count" : 243304,
            "max" : [
                0.2960900068283081,
                -0.7151550054550171,
                0.5243560075759888
            ],
            "min" : [
                -0.6091830134391785,
                -1.0200639963150024,
                -0.25935098528862
            ],
            "type" : "VEC3"
        },
        {
            "bufferView" : 2,
            "componentType" : 5126,
            "count" : 243304,
            "max" : [
                0.9999145269393921,
                0.9999969601631165,
                0.9962030053138733
            ],
            "min" : [
                -0.9997400045394897,
                -0.505209743976593,
                -0.9999749660491943
            ],
            "type" : "VEC3"
        },
        {
            "bufferView" : 3,
            "componentType" : 5126,
            "count" : 243304,
            "max" : [
                1.0,
                0.9722976088523865,
                0.9920530915260315,
                1.0
            ],
            "min" : [
                -0.2807950973510742,
                -0.9989805221557617,
                -0.9056624174118042,
                -1.0
            ],
            "type" : "VEC4"
        },
        {
            "bufferView" : 4,
            "componentType" : 5126,
            "count" : 243304,
            "max" : [
                0.734375,
                0.9976419999729842
            ],
            "min" : [
                0.0039059999398887157,
                0.20518898963928223
            ],
            "type" : "VEC2"
        }
    ],
    "asset" : {
        "generator" : "Khronos Blender glTF 2.0 exporter",
        "version" : "2.0"
    },
    "bufferViews" : [
        {
            "buffer" : 0,
            "byteLength" : 1459824,
            "byteOffset" : 0,
            "target" : 34963
        },
        {
            "buffer" : 0,
            "byteLength" : 2919648,
            "byteOffset" : 1459824,
            "target" : 34962
        },
        {
            "buffer" : 0,
            "byteLength" : 2919648,
            "byteOffset" : 4379472,
            "target" : 34962
        },
        {
            "buffer" : 0,
            "byteLength" : 3892864,
            "byteOffset" : 7299120,
            "target" : 34962
        },
        {
            "buffer" : 0,
            "byteLength" : 1946432,
            "byteOffset" : 11191984,
            "target" : 34962
        }
    ],
    "buffers" : [
        {
            "byteLength" : 13138416,
            "uri" : "wave.bin"
        }
    ],
    "images" : [
        {
            "name" : "frame_0000",
            "uri" : "frame_0000.jpg"
        }
    ],
    "materials" : [
        {
            "name" : "frame_0000_material",
            "pbrMetallicRoughness" : {
                "baseColorTexture" : {
                    "index" : 0
                },
                "metallicFactor" : 0.0
            }
        }
    ],
    "meshes" : [
        {
            "name" : "frame_0000",
            "primitives" : [
                {
                    "attributes" : {
                        "NORMAL" : 2,
                        "POSITION" : 1,
                        "TANGENT" : 3,
                        "TEXCOORD_0" : 4
                    },
                    "indices" : 0,
                    "material" : 0
                }
            ]
        }
    ],
    "nodes" : [
        {
            "name" : "sequence",
            "rotation" : [
                0.6465269923210144,
                -0.015172889456152916,
                -0.037910543382167816,
                0.7617974877357483
            ],
            "scale" : [
                1.0,
                0.9999999403953552,
                1.0
            ],
            "translation" : [
                0.0,
                0.7363896369934082,
                0.9054264426231384
            ]
        }
    ],
    "samplers" : [
        {}
    ],
    "scene" : 0,
    "scenes" : [
        {
            "name" : "Scene",
            "nodes" : [
                0
            ]
        }
    ],
    "textures" : [
        {
            "sampler" : 0,
            "source" : 0
        }
    ]
}
